# AST/ASF file generated using VICON BodyLanguage
# -----------------------------------------------
:version 1.10
:name VICON
:units
  mass 1.0
  length 0.45
  angle deg
:documentation
   .ast/.asf automatically generated from VICON data using
   VICON BodyBuilder and BodyLanguage model FoxedUp or BRILLIANT.MOD
:root
   order TX TY TZ RX RY RZ
   axis XYZ
   position 0 0 0  
   orientation 0 0 0 
:bonedata
  begin
     id 1 
     name lhipjoint
     direction 0.624716 -0.669793 0.401383 
     length 2.38238 
     axis 0 0 0  XYZ
  end
  begin
     id 2 
     name lfemur
     direction 0.34202 -0.939693 0  
     length 6.4574  
     axis 0 0 20  XYZ
    dof rx ry rz
    limits (-160.0 20.0)
           (-70.0 70.0)
           (-60.0 70.0)
  end
  begin
     id 3 
     name ltibia
     direction 0.34202 -0.939693 0   
     length 7.68739   
     axis 0 0 20   XYZ
    dof rx
    limits (-10.0 170.0)
  end
  begin
     id 4 
     name lfoot
     direction 0.0681309 -0.187188 0.979959   
     length 2.46615   
     axis -90 7.62852e-016 20   XYZ
    dof rx rz
    limits (-45.0 90.0)
           (-70.0 20.0)
  end
  begin
     id 5 
     name ltoes
     direction 1.53566e-011 -4.21819e-011 1   
     length 1.2376   
     axis -90 7.62852e-016 20   XYZ
    dof rx
    limits (-90.0 20.0)
  end
  begin
     id 6 
     name rhipjoint
     direction -0.644473 -0.655875 0.393043   
     length 2.43293  
     axis 0 0 0  XYZ 
  end
  begin
     id 7 
     name rfemur
     direction -0.34202 -0.939693 0   
     length 6.7025   
     axis 0 0 -20   XYZ
    dof rx ry rz
    limits (-160.0 20.0)
           (-70.0 70.0)
           (-70.0 60.0)
  end
  begin
     id 8 
     name rtibia
     direction -0.34202 -0.939693 0   
     length 7.80547   
     axis 0 0 -20   XYZ
    dof rx
    limits (-10.0 170.0)
 end
 begin
     id 9 
     name rfoot
     direction -0.0756734 -0.207911 0.975216   
     length 2.40315  
     axis -90 -7.62852e-016 -20   XYZ
    dof rx rz
    limits (-45.0 90.0)
           (-20.0 70.0)
  end
  begin
     id 10 
     name rtoes
     direction -1.5353e-011 -4.21879e-011 1   
     length 1.20477   
     axis -90 -7.62852e-016 -20   XYZ
    dof rx
    limits (-90.0 20.0)
  end
  begin
     id 11 
     name lowerback
     direction 0.0160353 0.987463 -0.157037   
     length 2.18572   
     axis 0 0 0   XYZ
    dof rx ry rz
    limits (-20.0 45.0)
           (-30.0 30.0)
           (-30.0 30.0)
  end
  begin
     id 12 
     name upperback
     direction -0.00499661 0.999756 0.0215076   
     length 2.18016   
     axis 0 0 0   XYZ
    dof rx ry rz
    limits (-20.0 45.0)
           (-30.0 30.0)
           (-30.0 30.0)
  end
  begin
     id 13 
     name thorax
     direction -0.00921346 0.995333 0.0960619   
     length 2.24923   
     axis 0 0 0   XYZ
    dof rx ry rz
    limits (-20.0 45.0)
           (-30.0 30.0)
           (-30.0 30.0)
  end
  begin
     id 14 
     name lowerneck
     direction 0.0274184 0.991181 0.12965   
     length 1.70911   
     axis 0 0 0   XYZ
    dof rx ry rz
    limits (-20.0 45.0)
           (-30.0 30.0)
           (-30.0 30.0)
  end
  begin
     id 15 
     name upperneck
     direction 0.0015627 0.999959 -0.00893559   
     length 1.69312   
     axis 0 0 0   XYZ
    dof rx ry rz
    limits (-20.0 45.0)
           (-30.0 30.0)
           (-30.0 30.0)
  end
  begin
     id 16
     name head
     direction -0.00230242 0.999856 -0.0168327  
     length 1.80241  
     axis 0 0 0   XYZ
    dof rx ry rz
    limits (-20.0 45.0)
           (-30.0 30.0)
           (-30.0 30.0)
  end
  begin
     id 17 
     name lclavicle
     direction 0.955523 0.290741 -0.0494489  
     length 3.84275  
     axis 0 0 0   XYZ
    dof ry rz
    limits (-20.0 10.0)
           (0.0 20.0)
  end
  begin
     id 18 
     name lhumerus
     direction 1 -4.48967e-011 -3.18382e-028   
     length 5.17714   
     axis 180 -30 -90   XYZ
    dof rx ry rz
    limits (-60.0 90.0)
           (-90.0 90.0)
           (-90.0 90.0)
  end
  begin
     id 19
     name lradius
     direction 1 -4.48968e-011 -2.22911e-027   
     length 3.43679   
     axis 180 -30 -90   XYZ
    dof rx
    limits (-10.0 170.0)
  end
  begin
     id 20
     name lwrist
     direction 1 -4.48951e-011 -6.32245e-027   
     length 1.7184   
     axis 3.57107e-015 90 90   XYZ
    dof ry
    limits (-180.0 0.0)
 end
  begin
     id 21 
     name lhand
     direction 1 -4.48924e-011 -1.26431e-026   
     length 0.573117   
     axis 8.06912e-015 90 90   XYZ
    dof rx rz
    limits (-90.0 90.0)
           (-45.0 45.0)
  end
  begin
     id 22 
     name lfingers
     direction 1 -4.49001e-011 -2.52965e-026   
     length 0.462062   
     axis 1.61381e-014 90 90   XYZ
    dof rx
    limits (0.0 90.0)
  end
  begin
     id 23
     name lthumb
     direction 0.707107 -6.35008e-011 0.707107   
     length 0.663431   
     axis -90 45 -1.62303e-014   XYZ
    dof rx rz
    limits (-45.0 45.0)
           (-45.0 45.0)
  end
  begin
     id 24 
     name rclavicle
     direction -0.963917 0.256881 -0.0698287   
     length 3.73057  
     axis 0 0 0   XYZ 
    dof ry rz
    limits (-10.0 20.0)
           (-20.0 0.0)
  end
  begin
     id 25 
     name rhumerus
     direction -1 -4.48962e-011 -2.73982e-027  
     length 5.23908   
     axis 180 30 90   XYZ
    dof rx ry rz
    limits (-90.0 60.0)
           (-90.0 90.0)
           (-90.0 90.0)
  end
  begin
     id 26 
     name rradius
     direction -1 -4.48968e-011 -4.33218e-027   
     length 3.46485   
     axis 180 30 90   XYZ
    dof rx
    limits (-10.0 170.0)
  end
  begin
     id 27 
     name rwrist
     direction -1 -4.48989e-011 -6.32372e-027   
     length 1.73243   
     axis 3.57107e-015 -90 -90   XYZ
    dof ry
    limits (-180.0 0.0)
  end
  begin
     id 28
     name rhand
     direction -1 -4.48948e-011 -1.26448e-026   
     length 0.608752   
     axis 8.06912e-015 -90 -90   XYZ
    dof rx rz
    limits (-90.0 90.0)
           (-45.0 45.0)
  end
  begin
     id 29
     name rfingers
     direction -1 -4.48962e-011 -2.52913e-026   
     length 0.490792   
     axis 1.61381e-014 -90 -90   XYZ
    dof rx
    limits (0.0 90.0)
  end
  begin
     id 30
     name rthumb
     direction -0.707107 -6.34878e-011 0.707107   
     length 0.704682   
     axis -90 -45 1.62303e-014   XYZ
    dof rx rz
    limits (-45.0 45.0)
           (-45.0 45.0)
  end
:hierarchy
  begin
    root lhipjoint rhipjoint lowerback
    lhipjoint lfemur
    lfemur ltibia
    ltibia lfoot
    lfoot ltoes
    rhipjoint rfemur
    rfemur rtibia
    rtibia rfoot
    rfoot rtoes
    lowerback upperback
    upperback thorax
    thorax lowerneck lclavicle rclavicle
    lowerneck upperneck
    upperneck head
    lclavicle lhumerus
    lhumerus lradius
    lradius lwrist
    lwrist lhand lthumb
    lhand lfingers
    rclavicle rhumerus
    rhumerus rradius
    rradius rwrist
    rwrist rhand rthumb
    rhand rfingers
  end

#!OML:ASF G:\JayActor3\Patient Classification 1\Patient 1\Session 6\male.ASF
:FULLY-SPECIFIED
:DEGREES
371
root 36.1887 16.6744 16.1689 183.249 -98.8144 -174.986
lowerback 1.40868 -3.69856 2.03975
upperback 2.96961 -5.12296 4.26522
thorax 2.48662 -2.61726 3.20482
lowerneck 5.18914 -13.2075 -5.92761
upperneck 8.85309 -18.7954 8.53689
head 3.19478 -9.41443 3.04203
rclavicle 2.62396e-014 -7.95139e-015
rhumerus 37.5234 -16.0612 -37.0345
rradius 21.4363
rwrist 11.4011
rhand -13.1823 -8.77943
rfingers 7.12502
rthumb 12.9175 -38.3596
lclavicle 2.62396e-014 -7.95139e-015
lhumerus -21.9713 -17.139 88.9447
lradius 36.6795
lwrist 27.0143
lhand -21.1926 6.47579
lfingers 7.12502
lthumb 5.18843 36.3923
rfemur -22.9456 -4.87302 32.0995
rtibia 34.0575
rfoot -4.87287 2.53831
rtoes 12.5303
lfemur -6.55809 7.63538 -16.1347
ltibia 46.4677
lfoot 13.4443 -8.42066
ltoes -1.58975
372
root 36.1046 16.675 16.1502 183.127 -98.6377 -174.941
lowerback 1.5775 -3.59037 2.03674
upperback 3.01742 -4.97464 4.26633
thorax 2.43523 -2.54449 3.21933
lowerneck 5.22349 -13.2389 -5.96153
upperneck 8.69495 -18.8323 8.65719
head 3.15877 -9.43344 3.08665
rclavicle 3.45885e-014 2.22639e-014
rhumerus 37.5322 -16.3568 -37.1171
rradius 21.3613
rwrist 11.5039
rhand -13.4857 -8.84723
rfingers 7.12502
rthumb 12.625 -38.4457
lclavicle 3.45885e-014 2.22639e-014
lhumerus -22.566 -15.8727 87.803
lradius 36.1941
lwrist 26.7326
lhand -21.459 6.52554
lfingers 7.12502
lthumb 4.93115 36.4482
rfemur -22.4167 -4.87909 32.1732
rtibia 33.8629
rfoot -4.95732 2.77051
rtoes 11.3111
lfemur -7.62735 7.32224 -15.8588
ltibia 47.847
lfoot 11.3852 -7.49318
ltoes -2.70538
373
root 36.0222 16.6726 16.1312 183.129 -98.4441 -175.016
lowerback 1.74373 -3.48042 2.05794
upperback 3.07054 -4.82436 4.26328
thorax 2.38835 -2.47012 3.21516
lowerneck 5.2456 -13.2681 -5.98409
upperneck 8.53063 -18.8647 8.78234
head 3.12198 -9.44968 3.13068
rclavicle 3.57812e-015 1.27222e-014
rhumerus 37.5652 -16.6795 -37.2343
rradius 21.2763
rwrist 11.6088
rhand -13.7715 -8.90434
rfingers 7.12502
rthumb 12.3494 -38.5196
lclavicle 3.57812e-015 1.27222e-014
lhumerus -23.1749 -14.6541 86.656
lradius 35.6673
lwrist 26.4557
lhand -21.6651 6.55658
lfingers 7.12502
lthumb 4.73217 36.4837
rfemur -21.9009 -4.85306 32.2642
rtibia 33.6746
rfoot -5.0318 2.98615
rtoes 10.7271
lfemur -8.69419 6.96373 -15.5573
ltibia 49.2241
lfoot 9.39488 -6.35632
ltoes -3.10334
374
root 35.9405 16.6691 16.112 183.218 -98.2352 -175.166
lowerback 1.9017 -3.36934 2.09925
upperback 3.1287 -4.673 4.25401
thorax 2.34929 -2.39462 3.19208
lowerneck 5.25542 -13.2978 -5.99599
upperneck 8.35805 -18.8959 8.91169
head 3.08404 -9.46475 3.17393
rclavicle 3.33958e-014 1.90833e-014
rhumerus 37.6202 -17.0251 -37.3791
rradius 21.1847
rwrist 11.7084
rhand -14.0212 -8.96411
rfingers 7.12502
rthumb 12.1087 -38.5937
lclavicle 3.33958e-014 1.90833e-014
lhumerus -23.8059 -13.4922 85.5091
lradius 35.112
lwrist 26.1743
lhand -21.8872 6.48585
lfingers 7.12502
lthumb 4.51766 36.4177
rfemur -21.3951 -4.81037 32.3661
rtibia 33.482
rfoot -5.08553 3.18895
rtoes 10.6679
lfemur -9.79418 6.58618 -15.2467
ltibia 50.5717
lfoot 7.44328 -5.17844
ltoes -3.45955
375
root 35.8586 16.6646 16.0927 183.458 -98.0172 -175.451
lowerback 2.04177 -3.25763 2.1719
upperback 3.19031 -4.52147 4.23901
thorax 2.32123 -2.31813 3.1438
lowerneck 5.24706 -13.3289 -5.99578
upperneck 8.18793 -18.9283 9.04554
head 3.04919 -9.47958 3.21529
rclavicle 8.34896e-015 -1.74931e-014
rhumerus 37.6864 -17.3823 -37.5361
rradius 21.0897
rwrist 11.7845
rhand -14.2403 -9.03377
rfingers 7.12502
rthumb 11.8974 -38.6757
lclavicle 8.34896e-015 -1.74931e-014
lhumerus -24.4665 -12.3991 84.368
lradius 34.5505
lwrist 25.9
lhand -22.1503 6.43296
lfingers 7.12502
lthumb 4.26365 36.37
rfemur -20.9004 -4.77101 32.4912
rtibia 33.2787
rfoot -5.10913 3.38766
rtoes 11.0561
lfemur -10.9496 6.19752 -14.9235
ltibia 51.8684
lfoot 5.54187 -4.0313
ltoes -4.0308
376
root 35.776 16.6601 16.0733 183.902 -97.7936 -175.922
lowerback 2.1634 -3.14777 2.27721
upperback 3.252 -4.37311 4.22401
thorax 2.30182 -2.24243 3.07571
lowerneck 5.23481 -13.3589 -5.98785
upperneck 8.01275 -18.9584 9.18401
head 3.01306 -9.49316 3.25696
rclavicle -5.1684e-015 1.11319e-014
rhumerus 37.7648 -17.7409 -37.6985
rradius 20.9957
rwrist 11.8341
rhand -14.4153 -9.11635
rfingers 7.12502
rthumb 11.7286 -38.768
lclavicle -5.1684e-015 1.11319e-014
lhumerus -25.1512 -11.3605 83.2402
lradius 33.977
lwrist 25.6393
lhand -22.4099 6.41496
lfingers 7.12502
lthumb 4.01291 36.3569
rfemur -20.42 -4.73874 32.6438
rtibia 33.059
rfoot -5.12233 3.60005
rtoes 11.3284
lfemur -12.185 5.79836 -14.5905
ltibia 53.0892
lfoot 3.70494 -2.91566
ltoes -5.30651
377
root 35.6929 16.655 16.0537 184.529 -97.5709 -176.557
lowerback 2.27177 -3.0431 2.40932
upperback 3.31144 -4.23196 4.21003
thorax 2.28663 -2.16967 2.9926
lowerneck 5.20653 -13.3872 -5.97499
upperneck 7.84556 -18.986 9.32197
head 2.98122 -9.50491 3.29643
rclavicle 3.06128e-014 -1.11319e-014
rhumerus 37.8514 -18.089 -37.8576
rradius 20.9081
rwrist 11.8626
rhand -14.5456 -9.22054
rfingers 7.12502
rthumb 11.603 -38.8793
lclavicle 3.06128e-014 -1.11319e-014
lhumerus -25.8628 -10.3662 82.1301
lradius 33.3927
lwrist 25.3982
lhand -22.6634 6.42665
lfingers 7.12502
lthumb 3.76816 36.3731
rfemur -19.954 -4.72491 32.8183
rtibia 32.8234
rfoot -5.13117 3.82989
rtoes 11.4163
lfemur -13.4813 5.36344 -14.2524
ltibia 54.2294
lfoot 1.96443 -1.80467
ltoes -6.76532
378
root 35.6096 16.6489 16.0343 185.342 -97.3532 -177.358
lowerback 2.36977 -2.94574 2.56638
upperback 3.3666 -4.10052 4.19746
thorax 2.27234 -2.10115 2.89623
lowerneck 5.18058 -13.4101 -5.9597
upperneck 7.67581 -19.0067 9.46722
head 2.94821 -9.51348 3.33826
rclavicle 3.97569e-015 1.27222e-014
rhumerus 37.9537 -18.4368 -38.0319
rradius 20.8224
rwrist 11.8966
rhand -14.6453 -9.32018
rfingers 7.12502
rthumb 11.5068 -38.9843
lclavicle 3.97569e-015 1.27222e-014
lhumerus -26.6005 -9.40981 81.0408
lradius 32.7926
lwrist 25.1716
lhand -22.9132 6.48039
lfingers 7.12502
lthumb 3.52694 36.431
rfemur -19.4968 -4.7135 33.0085
rtibia 32.5769
rfoot -5.13503 4.07237
rtoes 11.6353
lfemur -14.8575 4.88337 -13.917
ltibia 55.283
lfoot 0.281194 -0.705552
ltoes -8.73013
379
root 35.5269 16.6407 16.0149 186.332 -97.1414 -178.314
lowerback 2.46256 -2.85641 2.73998
upperback 3.41346 -3.97935 4.18945
thorax 2.25279 -2.03742 2.79505
lowerneck 5.14418 -13.4282 -5.94292
upperneck 7.51401 -19.0212 9.61077
head 2.91849 -9.51872 3.37863
rclavicle -5.96354e-015 1.59028e-014
rhumerus 38.0679 -18.7736 -38.2103
rradius 20.7454
rwrist 11.9429
rhand -14.7036 -9.42358
rfingers 7.12502
rthumb 11.4506 -39.0909
lclavicle -5.96354e-015 1.59028e-014
lhumerus -27.3651 -8.48255 79.9804
lradius 32.1734
lwrist 24.9569
lhand -23.1449 6.52041
lfingers 7.12502
lthumb 3.30314 36.4746
rfemur -19.0586 -4.69236 33.2096
rtibia 32.3267
rfoot -5.13376 4.32812
rtoes 12.0117
lfemur -16.2815 4.31432 -13.5765
ltibia 56.2591
lfoot -1.29377 0.414202
ltoes -10.2792
380
root 35.4449 16.6303 15.9958 187.432 -96.9367 -179.361
lowerback 2.55162 -2.7739 2.9202
upperback 3.45544 -3.86685 4.18219
thorax 2.23097 -1.97785 2.69064
lowerneck 5.10103 -13.443 -5.91987
upperneck 7.35688 -19.0311 9.75469
head 2.89036 -9.52145 3.41785
rclavicle 4.21423e-014 -4.13472e-014
rhumerus 38.2153 -19.1449 -38.4424
rradius 20.6579
rwrist 12.0707
rhand -14.7547 -9.49365
rfingers 7.12502
rthumb 11.4013 -39.1637
lclavicle 4.21423e-014 -4.13472e-014
lhumerus -28.1571 -7.5837 78.9494
lradius 31.5438
lwrist 24.7402
lhand -23.3339 6.51186
lfingers 7.12502
lthumb 3.12064 36.4688
rfemur -18.6282 -4.65483 33.4087
rtibia 32.0785
rfoot -5.16753 4.60467
rtoes 12.7017
lfemur -17.7476 3.63938 -13.2393
ltibia 57.1519
lfoot -2.78609 1.54142
ltoes -11.3235
381
root 35.3637 16.6174 15.9765 188.639 -96.7401 -180.49
lowerback 2.63519 -2.69839 3.10252
upperback 3.49258 -3.76334 4.17498
thorax 2.20811 -1.92266 2.58475
lowerneck 5.03196 -13.456 -5.88695
upperneck 7.21732 -19.0389 9.89378
head 2.87012 -9.52203 3.45184
rclavicle -5.56597e-015 1.74931e-014
rhumerus 38.3747 -19.518 -38.695
rradius 20.5775
rwrist 12.2251
rhand -14.8039 -9.53384
rfingers 7.12502
rthumb 11.3539 -39.2065
lclavicle -5.56597e-015 1.74931e-014
lhumerus -28.9816 -6.72306 77.9495
lradius 30.9245
lwrist 24.5374
lhand -23.4875 6.48175
lfingers 7.12502
lthumb 2.97235 36.4408
rfemur -18.2253 -4.5994 33.611
rtibia 31.8391
rfoot -5.235 4.89148
rtoes 13.5439
lfemur -19.2637 2.85083 -12.9006
ltibia 57.9568
lfoot -4.18784 2.65677
ltoes -11.8472
382
root 35.2832 16.6028 15.9567 189.837 -96.5491 -181.59
lowerback 2.7275 -2.62908 3.26406
upperback 3.52305 -3.66695 4.16786
thorax 2.17557 -1.87154 2.49098
lowerneck 4.94959 -13.4682 -5.84834
upperneck 7.08737 -19.0457 10.0291
head 2.85396 -9.52158 3.48269
rclavicle -7.95139e-015 2.8625e-014
rhumerus 38.5104 -19.8401 -38.9013
rradius 20.5241
rwrist 12.3348
rhand -14.8548 -9.54837
rfingers 7.12502
rthumb 11.3048 -39.2237
lclavicle -7.95139e-015 2.8625e-014
lhumerus -29.8363 -5.88862 76.9837
lradius 30.3074
lwrist 24.3363
lhand -23.5769 6.40821
lfingers 7.12502
lthumb 2.88601 36.3684
rfemur -17.8527 -4.53012 33.808
rtibia 31.6142
rfoot -5.36151 5.17544
rtoes 14.2893
lfemur -20.8276 1.955 -12.5704
ltibia 58.6558
lfoot -5.52466 3.73075
ltoes -12.1858
383
root 35.2034 16.5866 15.9359 190.931 -96.3662 -182.566
lowerback 2.82573 -2.56501 3.39001
upperback 3.5489 -3.57678 4.16002
thorax 2.13762 -1.82434 2.41647
lowerneck 4.84245 -13.4839 -5.80764
upperneck 6.97525 -19.058 10.1616
head 2.84711 -9.52278 3.50951
rclavicle 8.34896e-015 -3.81667e-014
rhumerus 38.6319 -20.1314 -39.0712
rradius 20.4905
rwrist 12.4191
rhand -14.9236 -9.54377
rfingers 7.12502
rthumb 11.2384 -39.2227
lclavicle 8.34896e-015 -3.81667e-014
lhumerus -30.7323 -5.10136 76.0619
lradius 29.7296
lwrist 24.1685
lhand -23.6363 6.35115
lfingers 7.12502
lthumb 2.82863 36.3121
rfemur -17.5159 -4.4459 33.9957
rtibia 31.4094
rfoot -5.56789 5.43743
rtoes 14.8116
lfemur -22.4376 0.961763 -12.2497
ltibia 59.2355
lfoot -6.79478 4.74929
ltoes -12.3965
